<?xml version="1.0" standalone="no"?><!DOCTYPE svg PUBLIC "-//W3C//DTD SVG 1.1//EN" "http://www.w3.org/Graphics/SVG/1.1/DTD/svg11.dtd"><svg t="1772429681651" class="icon" viewBox="0 0 1303 1024" version="1.1" xmlns="http://www.w3.org/2000/svg" p-id="5445" xmlns:xlink="http://www.w3.org/1999/xlink" width="254.4921875" height="200"><path d="M1282.786896 270.896107L1000.908905 18.527799a73.076031 73.076031 0 0 0-49.337958-18.525006H105.750792S0 5.960584 0 95.141269v833.066759c1.117086 53.433939 47.9416 96.162472 105.006068 95.79011h1093.254667S1303.266803 1019.995247 1303.266803 928.114938V316.510445a64.232435 64.232435 0 0 0-21.13154-45.614338h0.651633z m-277.688919-162.535989l182.550443 166.445789h-148.013873s-35.188204 0-35.188204-32.302398v-132.18849l0.651634-1.954901z m229.095686 819.84791c0 8.657415-3.723619 16.942468-10.426135 22.90026a35.095113 35.095113 0 0 1-24.855159 8.843596H105.192249a34.257299 34.257299 0 0 1-34.629661-31.743856V95.141269c0-29.044232 34.53657-29.044232 34.536571-29.044231h830.367134v176.406471c0 89.180686 104.261344 96.441743 104.261345 96.441743h194.559115v589.262776z" fill="#1296db" p-id="5446"></path><path d="M344.993341 287.373123c68.235326 0 91.88031 22.527898 91.88031 61.25354a53.71321 53.71321 0 0 1-39.191095 53.71321c27.089331 3.258167 47.476148 26.344608 47.196876 53.71321 0 45.148886-29.509684 65.535702-90.763223 65.535703H255.254112V287.373123h89.739229z m-45.614338 95.603929h41.890719c30.62677 0 53.71321-9.681411 53.71321-30.068227 0-20.479907-17.687192-29.044232-53.71321-29.044232h-41.890719v59.112459z m0 98.862096h45.614338c37.050013 0 53.71321-9.122868 53.71321-31.650765 0-22.620988-23.086441-30.71986-53.71321-30.719861h-45.614338v62.370626z m294.910659-74.65857V401.222787c0-12.846487-9.681411-24.668979-36.584561-24.668979a42.449262 42.449262 0 0 0-41.332175 21.410812l-39.191095-5.306158a83.315985 83.315985 0 0 1 82.198899-48.872505c53.71321 0 77.265103 22.527898 77.265103 58.553916v82.198899c0 9.681411 5.957791 11.822492 18.897369 9.122868v25.786064a90.297771 90.297771 0 0 1-26.90315 3.72362 37.608556 37.608556 0 0 1-29.509684-12.287944 78.47528 78.47528 0 0 1 0-10.798497 96.162472 96.162472 0 0 1-64.511707 23.086441c-27.927146 0-59.577911-13.963573-59.577911-44.590343-2.792715-41.890719 39.098004-63.30153 119.155822-71.400403z m-53.71321 83.222895a92.438853 92.438853 0 0 0 53.71321-17.687193V439.389886c-40.30818 3.723619-79.033823 12.939578-79.033822 34.44348 2.792715 11.729401 9.681411 16.570106 26.344607 16.570107h-1.023995z m171.286494-19.828274a44.0318 44.0318 0 0 0 43.007805 21.969355c19.362821 0 31.650765-9.122868 31.650765-20.386817s-18.152645-18.804278-41.332176-25.786064c-45.614338-12.381035-67.11824-26.81006-67.11824-53.713211s29.509684-49.337958 74.658569-49.337957a75.775656 75.775656 0 0 1 75.775656 42.821623l-39.749638 5.957792a38.167099 38.167099 0 0 0-36.026018-17.687193c-19.828274 0-32.209308 8.564325-32.209308 19.362821 0 10.705406 19.828274 19.269731 36.491471 23.551893 49.989591 11.357039 74.75166 25.320612 74.75166 53.806301 0 28.392598-31.185313 53.71321-78.47528 53.713211a85.922519 85.922519 0 0 1-81.640356-45.614339l40.308181-8.657415z m235.891291-126.789242a81.081813 81.081813 0 0 1 85.922519 87.039605v17.128649H902.139899a42.449262 42.449262 0 0 0 47.196877 42.449262 49.337958 49.337958 0 0 0 44.683433-21.410812l39.098004 5.864701a84.33998 84.33998 0 0 1-83.781437 48.407052 83.781437 83.781437 0 0 1-90.297772-89.739228 83.781437 83.781437 0 0 1 88.715233-89.739229z m44.0318 73.541484a41.890719 41.890719 0 0 0-44.0318-40.773633 42.449262 42.449262 0 0 0-45.148885 40.773633h89.180685zM536.759742 560.407518a82.198899 82.198899 0 0 1 78.47528 47.755419l-43.007805 6.516334a39.191095 39.191095 0 0 0-36.49147-21.503902c-35.467475 0-49.431048 38.632552-53.713211 76.334199a67.11824 67.11824 0 0 1 56.878287-26.996241 71.493493 71.493493 0 0 1 77.358194 74.193117c0 48.407053-30.068227 78.382189-87.505057 78.382189-57.52992 0-86.015609-33.791846-86.015609-100.910087 0-82.850532 30.71986-133.771028 94.021391-133.771028zM531.546675 763.344778a41.332176 41.332176 0 0 0 43.473257-44.0318 41.890719 41.890719 0 0 0-43.473257-44.0318 44.0318 44.0318 0 1 0 0 88.0636zM752.171126 564.59659h62.370626v144.476434h29.509684v34.44348H814.541752v47.196876h-43.007804v-47.289966H650.143954v-26.81006L752.171126 564.59659z m19.362822 144.476434v-104.261344l-69.259322 104.261344h69.259322z" fill="#1296db" p-id="5447"></path></svg>