<?xml version="1.0" standalone="no"?><!DOCTYPE svg PUBLIC "-//W3C//DTD SVG 1.1//EN" "http://www.w3.org/Graphics/SVG/1.1/DTD/svg11.dtd"><svg t="1772432797191" class="icon" viewBox="0 0 1024 1024" version="1.1" xmlns="http://www.w3.org/2000/svg" p-id="31778" xmlns:xlink="http://www.w3.org/1999/xlink" width="200" height="200"><path d="M753.999941 483.999962c148.879988 0 269.999979 121.119991 269.999979 269.999979S902.879929 1023.99992 753.999941 1023.99992a268.703979 268.703979 0 0 1-169.495987-59.999995H89.999993C40.375997 963.999925 0 923.623928 0 873.999932v-783.999939C0 40.375997 40.375997 0 89.999993 0h543.999957C683.623947 0 723.999943 40.375997 723.999943 89.999993v395.679969a271.743979 271.743979 0 0 1 29.999998-1.68zM529.607959 903.999929A268.431979 268.431979 0 0 1 483.999962 753.999941a268.431979 268.431979 0 0 1 45.607997-149.999988H513.99996a29.999998 29.999998 0 0 1 0-59.999995h59.999995c3.08 0 6.056 0.464 8.855999 1.327999A269.967979 269.967979 0 0 1 663.999948 499.439961V89.999993a30.031998 30.031998 0 0 0-29.999998-29.999998h-543.999957a30.031998 30.031998 0 0 0-29.999998 29.999998v783.999939a30.031998 30.031998 0 0 0 29.999998 29.999997h439.607966z m344.391973-179.999986a29.999998 29.999998 0 0 1 0 59.999996h-119.999991a29.999998 29.999998 0 0 1-29.999998-29.999998v-119.999991a29.999998 29.999998 0 0 1 59.999996 0V723.999943h89.999993z m-119.999991 239.999982c115.791991 0 209.999984-94.207993 209.999984-209.999984S869.791932 543.999958 753.999941 543.999958 543.999958 638.20795 543.999958 753.999941s94.207993 209.999984 209.999983 209.999984zM573.999955 119.999991a29.999998 29.999998 0 0 1 29.999998 29.999997v183.999986a29.999998 29.999998 0 0 1-29.999998 29.999998h-423.999967A29.999998 29.999998 0 0 1 119.999991 333.999974v-183.999986A29.999998 29.999998 0 0 1 149.999988 119.999991h423.999967zM543.999958 303.999976V179.999986H179.999986V303.999976H543.999958zM393.999969 423.999967a29.999998 29.999998 0 0 1 0 59.999995h-243.999981a29.999998 29.999998 0 0 1 0-59.999995h243.999981z m-183.999985 119.999991a29.999998 29.999998 0 0 1 0 59.999995h-59.999996a29.999998 29.999998 0 0 1 0-59.999995h59.999996z m0 119.99999a29.999998 29.999998 0 0 1 0 59.999995h-59.999996a29.999998 29.999998 0 0 1 0-59.999995h59.999996z m0 119.999991a29.999998 29.999998 0 0 1 0 59.999995h-59.999996a29.999998 29.999998 0 0 1 0-59.999995h59.999996z m183.999985-239.999981a29.999998 29.999998 0 0 1 0 59.999995h-63.999995a29.999998 29.999998 0 0 1 0-59.999995h63.999995z m0 119.99999a29.999998 29.999998 0 0 1 0 59.999995h-63.999995a29.999998 29.999998 0 0 1 0-59.999995h63.999995z m0 119.999991a29.999998 29.999998 0 0 1 0 59.999995h-63.999995a29.999998 29.999998 0 0 1 0-59.999995h63.999995z m179.999986-359.999972a29.999998 29.999998 0 0 1 0 59.999995h-59.999995a29.999998 29.999998 0 0 1 0-59.999995h59.999995z" fill="#20A0FF" p-id="31779"></path></svg>