<?xml version="1.0" standalone="no"?><!DOCTYPE svg PUBLIC "-//W3C//DTD SVG 1.1//EN" "http://www.w3.org/Graphics/SVG/1.1/DTD/svg11.dtd"><svg t="1772430030253" class="icon" viewBox="0 0 1024 1024" version="1.1" xmlns="http://www.w3.org/2000/svg" p-id="7514" xmlns:xlink="http://www.w3.org/1999/xlink" width="200" height="200"><path d="M217.6 768l-25.472 92.586667a61.696 61.696 0 0 0 119.04 32.725333L345.6 768h170.666667l-25.472 92.586667a61.696 61.696 0 0 0 119.04 32.725333L644.266667 768h187.733333a64 64 0 0 0 0-128h-152.533333l70.4-256H874.666667a64 64 0 0 0 0-128h-89.6l25.472-92.586667a61.696 61.696 0 1 0-119.04-32.725333L657.066667 256h-170.666667l25.472-92.586667a61.696 61.696 0 1 0-119.04-32.725333L358.4 256H192a64 64 0 1 0 0 128h131.2l-70.4 256H149.333333a64 64 0 0 0 0 128h68.266667z m163.2-128l70.4-256h170.666667l-70.4 256h-170.666667z" fill="#000000" p-id="7515"></path></svg>