<?xml version="1.0" standalone="no"?><!DOCTYPE svg PUBLIC "-//W3C//DTD SVG 1.1//EN" "http://www.w3.org/Graphics/SVG/1.1/DTD/svg11.dtd"><svg t="1772431789265" class="icon" viewBox="0 0 1024 1024" version="1.1" xmlns="http://www.w3.org/2000/svg" p-id="22192" xmlns:xlink="http://www.w3.org/1999/xlink" width="200" height="200"><path d="M1007.19 263.95c0 5.07-1.61 9.41-4.96 12.63L825.28 453.65c-3.34 3.34-7.55 4.95-12.63 4.95-4.7 0-8.91-1.73-12.38-5.2-3.46-3.47-5.2-7.68-5.2-12.38V334.9H653.41c-17.7 0-33.68 2.85-48.17 8.29-14.36 5.57-27.12 13.87-38.13 24.89-11.02 11.02-20.44 22.41-28.11 33.93-7.81 11.64-16.1 25.88-24.89 42.84-11.76 22.91-26.13 54.36-43.09 94.48-10.65 24.27-19.81 44.83-27.37 61.42-7.55 16.6-17.58 35.91-29.84 58.07-12.26 22.17-24.14 40.62-35.29 55.23-11.27 14.74-24.89 29.97-40.99 45.95-16.1 15.85-32.69 28.48-49.78 37.88-17.09 9.41-36.78 17.09-58.82 23.28-22.04 6.06-45.69 9.04-70.83 9.04H34.28c-5.08 0-9.41-1.61-12.63-4.95-3.34-3.22-4.95-7.43-4.95-12.51V706.63c0-5.08 1.61-9.41 4.95-12.63 3.34-3.34 7.55-4.95 12.63-4.95H158.1c17.71 0 33.68-2.85 48.17-8.3 14.37-5.57 27.12-13.86 38.14-24.89 11.02-11.02 20.43-22.41 28.11-33.93 7.8-11.64 16.1-25.88 24.89-42.84 11.77-22.78 26.13-54.36 43.09-94.48 10.65-24.27 19.81-44.83 27.37-61.42 7.56-16.59 17.58-35.91 29.84-58.07 12.38-22.05 24.15-40.62 35.29-55.23 11.26-14.74 24.89-29.96 40.99-45.94 16.1-15.85 32.69-28.48 49.78-37.89 17.09-9.41 36.77-17.09 58.82-23.28 22.04-6.07 45.69-9.04 70.82-9.04h141.54V87.61c0-5.08 1.61-9.41 4.95-12.63 3.34-3.34 7.55-4.95 12.63-4.95 4.46 0 8.79 1.86 13.25 5.58l176.45 175.96c3.34 2.96 4.96 7.3 4.96 12.38z m-622.48 53.61c-22.04 33.93-47.31 84.2-75.66 150.94-8.17-16.6-14.86-29.84-20.43-40.12-5.58-10.15-13-21.92-22.41-35.17s-18.82-23.77-28.11-31.33c-9.41-7.55-21.05-13.99-34.92-19.32-13.87-5.32-28.85-8.05-45.07-8.05H34.4c-5.08 0-9.41-1.61-12.63-4.95-3.34-3.34-4.96-7.55-4.96-12.63V210.82c0-5.08 1.61-9.41 4.96-12.63 3.34-3.34 7.55-4.95 12.63-4.95h123.83c91.88-0.12 167.53 41.36 226.48 124.32z m622.48 441.69c0 5.07-1.61 9.41-4.96 12.63L825.28 948.95c-3.34 3.34-7.55 4.95-12.63 4.95-4.7 0-8.91-1.73-12.38-5.2-3.46-3.47-5.2-7.68-5.2-12.38V830.2c-11.76 0-27.49 0.12-46.93 0.25-19.56 0.25-34.42 0.37-44.82 0.62-10.41 0.25-23.78 0-40.37-0.62-16.59-0.62-29.6-1.49-39.25-2.85-9.53-1.24-21.42-3.22-35.29-5.82-13.99-2.6-25.63-5.94-34.92-10.28-9.17-4.21-19.93-9.53-32.08-15.85-12.26-6.32-23.03-13.62-32.69-22.04a548.445 548.445 0 0 1-30.46-29.47c-10.65-11.27-21.05-24.02-30.96-38.39 21.79-34.3 46.8-84.58 75.29-150.94 8.17 16.6 14.86 29.97 20.43 40.12 5.57 10.15 13 21.92 22.41 35.17s18.82 23.77 28.11 31.33c9.41 7.56 21.05 14.12 34.92 19.32 13.87 5.33 28.85 8.05 45.07 8.05h141.53V582.67c0-5.07 1.61-9.41 4.95-12.63 3.34-3.34 7.56-4.95 12.63-4.95 4.46 0 8.8 1.86 13.25 5.57l176.33 176.33c3.35 2.85 4.97 7.18 4.97 12.26z m0 0" p-id="22193" fill="#13227a"></path></svg>