<?xml version="1.0" standalone="no"?><!DOCTYPE svg PUBLIC "-//W3C//DTD SVG 1.1//EN" "http://www.w3.org/Graphics/SVG/1.1/DTD/svg11.dtd"><svg t="1772432655407" class="icon" viewBox="0 0 1024 1024" version="1.1" xmlns="http://www.w3.org/2000/svg" p-id="30609" xmlns:xlink="http://www.w3.org/1999/xlink" width="200" height="200"><path d="M512 0c282.7776 0 512 229.2224 512 512s-229.2224 512-512 512S0 794.7776 0 512 229.2224 0 512 0z m0 837.8368a46.592 46.592 0 0 0-46.2336 41.1136l-0.3072 5.4272v46.5408a46.592 46.592 0 0 0 92.7744 5.4272l0.3072-5.4272v-46.592a46.592 46.592 0 0 0-46.5408-46.4896z m418.9184-372.3776h-46.592a46.592 46.592 0 0 0-5.376 92.7744l5.4272 0.3072h46.5408a46.592 46.592 0 0 0 0-93.0816z m-791.296 0h-46.5408a46.592 46.592 0 0 0-5.4272 92.7744l5.4272 0.3072h46.592a46.592 46.592 0 0 0 0-93.0816zM512 139.6224a46.592 46.592 0 0 0-46.592 46.592V512c0 25.7024 20.8896 46.592 46.592 46.592h232.704a46.592 46.592 0 1 0 0-93.184H558.592V186.1632A46.592 46.592 0 0 0 512 139.6224z" fill="#d81e06" p-id="30610"></path></svg>