<?xml version="1.0" standalone="no"?><!DOCTYPE svg PUBLIC "-//W3C//DTD SVG 1.1//EN" "http://www.w3.org/Graphics/SVG/1.1/DTD/svg11.dtd"><svg t="1772431887131" class="icon" viewBox="0 0 1024 1024" version="1.1" xmlns="http://www.w3.org/2000/svg" p-id="23324" xmlns:xlink="http://www.w3.org/1999/xlink" width="200" height="200"><path d="M431.7 323s13.9 29 21 62.2c15.1 71.2-3.7 100.5-26.9 99.1-24-1.4-37.1-37.8-37.1-37.8S377 404.2 374.2 390c-2.6-12.9-7.2-52.1-7.2-52.1s5.6-14.8 4.9-28.8c-0.6-11.9-3.2-29.1-3.2-29.1s19.4-8.1 26.6-10.4c30-9.8 58.8-24.8 70-38.6 10.1-12.3 20.9-39.9 20.9-39.9s7.1 11.1 9 15.6c2.3 5.5 8 24.3 8 24.3s55.6 35.1 79.7 57c46.7 42.4 40.6 73 23.9 87.3-20.6 17.6-49.2 2.4-78.7-16-22.4-14-54.6-51.7-54.6-51.7s-23.8-33.2-38.8-27.6c-18.1 6.9-3 43-3 43zM285.2 341.2s-19.3 17.6-40.3-7.8c-12-14.5-11.1-31.2-8-41.2 5.4-17.5 23-47.8 52.3-51.2 13.2-1.5 18.1 9.5 18.1 9.5s-18.4 19-24.1 35.3c-6.1 17.8 2 55.4 2 55.4z" fill="#d81e06" p-id="23325"></path><path d="M292.5 338c3.9 11.7 37 24.9 62.1 4.4 20.5-16.7 8.1-59.8 8.1-59.8s-16.9 25.7-41.1 13.2c-15.7-8.1-9.6-41.3-9.6-41.3s-10.9 4.2-21.3 34.1c-8.6 25.1-1 41 1.8 49.4z" fill="#d81e06" p-id="23326"></path><path d="M317.5 258.8s-3 31.5 10.7 32.9c16 1.7 32.5-15.1 32.5-15.1s4.2-3.1 20.9-10.8c24.8-11.4 57.2-13.1 79-40.2 16.3-20.3 18.2-45.1 18.2-45.1s-21.9-32.9-30.9-41.3c-9.9-9.4-44.6-29.9-44.6-29.9s-22.8 2.9-30 4.2c-8.3 1.5-32 7.2-32 7.2s-4.5 0-5.3-4.3c-0.8-4.4 5.7-5.9 5.7-5.9s28-5 37.4-6.2c5.7-0.8 22.9-1.8 22.9-1.8s4.4-25.9-42.4-38.5c-39-10.6-78.9 21.4-78.9 21.4s-26 20.3-37.2 41.4c-14.3 26.9 3.6 47.6 3.6 47.6s13.8-15.4 19.3-19.9c6.2-5.1 26.5-19.3 26.5-19.3s3.8-1.1 4-0.7c1.7 3.4-3.5 7.7-3.5 7.7s-14.6 10.4-18.5 13.8c-7.1 6-22.4 15.3-25.8 23.3-0.2 0.5 0.2 1.7 0 2.2-3.1 9.5-12.1 12.2-12 38 0 11.5 6.9 47.8 6.9 47.8s23.3-31.1 40.5-33.4c25.6-3.4 25.3 12 26.6 11 1.5-1.1 14-22.7 29.2-29.5 15.3-6.8 24.4-5.8 24.4-5.8s-18.3-14.4-24-21.2c-4.6-5.5-9.2-22.7-9.2-22.7s0.8-3.9 5.2-4.3c4.2-0.4 5.9 3.8 5.9 3.8s-0.6 16 9.3 25.3c9.4 8.8 32.1 15.7 33.7 19.1 1.8 3.8-40.5 8.4-49 15-15.2 12.2-19.1 34.2-19.1 34.2z" fill="#d81e06" p-id="23327"></path><path d="M342.7 863.7c31.5-15.2 111.2-9.5 97.7-55.6-8.1-27.7-92.1 1.8-95.7-5.3-6.4-12.6 59.2-36.4 79.4-47.7 37.1-20.7 39.1-45.1 32.7-58.2C431 644.3 300.6 754.2 296 751c-16.1-11.3 152.1-109.3 92.6-157.9-43.2-35.4-129.4 117.3-141.4 110.7-17.2-9.4 78.4-145.2 17.2-169.8-49-19.7-97 188.8-102.9 180.8-15.2-20.7-53.5-79.3-92.8-47.5-21 17.2 23.3 50.7 28.6 68.4 3.3 10.9-2 36.5-1.4 45.9 0.7 11.4 0.2 28.8 3.2 37.7 0.2 0.4 6 14.2 15.5 26.3 9.6 12.2 18.8 18.1 18.2 20.1-0.4 1.4-12.2-8.6-25.8-23.5-12.3-13.5-9.1-21.1-13.8-20.5-4 0.5-34.6 37.9 29.8 94.5 51.7 45.4 101.4 9.4 94.7 7-0.6-0.2-7.4-0.9-14.3-4.7-11.2-6.3-26.4-14.1-26.2-14 26.8 10.9 58.3 23.5 94.5 5.7 21.3-10.4 49.5-36.2 71-46.5z" fill="#d81e06" p-id="23328"></path><path d="M713.2 867.6s26.5-12.6 37.2-29.9c12.6-20.5-0.2-47.4-0.2-47.4s16.4-10.7 21.6-23.4c6.6-16.3 0.4-34 0.4-34s4.2 0.4 10.2-1.5c5.7-1.8 9.9-5.3 9.9-5.3s10.1 23.2 14.7 28.2c9.1 9.8 23.2 10.7 24.6 8.5 4.2-6.8-13.6-6.1-23.6-22.9-3.8-6.4-7.2-12.3-5.6-16.3 2.6-6.5 25.6-20.2 31.7-27.8 9.4-11.9 13.5-18.7 15.2-27.8 0.3-1.8 0.1-5.8-5.1-5.3-1 0.1-3 3-3 3s-13.2 24-22.8 34.6c-13.7 15.2-37.3 22.4-37.3 22.4s-12.7 4.6-26.7-7.8c-10.4-9.2-13.9-22-14.2-30.1-0.6-13.9 7.2-37.7 12.9-51.2 6.2-14.7 22.5-40.2 32.3-56.9 4.1-6.9 23.4-9.5 31.4-9 26.1 1.6 63.1 33.4 63.1 33.4s38.9 26.6 48.3 89.5c7.2 48.3-20.8 81.2-33 102.2-0.8 1.5-0.1 4 1.8 4.4 3.7 0.7 13.3-10.7 23.5-25.8 13.9-20.7 14.4-53.2 14.4-53.2s59.2 47.9-6.7 129.1c-48.5 59.8-94.9 32.3-94.9 32.3s13.8-16.4 18.3-22.5c6.7-9.2 10.5-16.7 10.1-23-0.1-1-1.3-5.2-2.3-3.3-2.2 4-7.7 13.7-7.7 13.7s-7 10.7-9.2 14c-5.9 9-15.1 16.3-15.1 16.3S807.3 889.2 773 890c-37.6 0.7-59.8-22.4-59.8-22.4z" fill="#d81e06" p-id="23329"></path><path d="M621.6 773.7s-12.8 8-17.3 17.1c-2.9 5.7-3.7 20.2-0.8 26 5.3 10.7 26.7 23.9 37.8 29.3 13.6 6.6 47.3 18.5 63 16.2 11.6-1.7 24-10.1 35.6-23.8 12.8-15.1 5.7-45.2 5.7-45.2s-21.7 14.4-57.2 5.1c-22.8-5.9-66.8-24.7-66.8-24.7z" fill="#d81e06" p-id="23330"></path><path d="M625 689.7s-17 12.4-22.8 28.7c-6.3 17.9 13.6 36.6 13.6 36.6s18.8 16.7 49.2 29c26.7 10.8 58.4 8.5 58.4 8.5s15.9 0.3 32.7-17c12.3-12.7 5.6-34.7 5.6-34.7s-26.9 5.6-68.9-13.6c-17.7-8-67.8-37.5-67.8-37.5z" fill="#d81e06" p-id="23331"></path><path d="M649.6 612.6c-6.8-0.6-22.8 3.9-31.1 22.8-8.7 19.7 6.1 37.6 6.1 37.6s21.7 21.4 57.8 42c50.1 28.6 84.9 18.8 84.9 18.8s-25.9-12-34.2-35.8c-7.7-22.1 3.8-45.9 3.8-45.9s-22.2-15.9-30.8-19.9c-13.3-5.8-41.6-18.4-56.5-19.6zM740.9 645.5s11.1-28.1 15.4-37c3.9-8 18.4-32.9 18.4-32.9s-39.8-28.9-66.1-27.9c-15.3 0.6-29.6 6-37 12.4-5.3 4.5-10.5 12.9-14.9 23.7-2.1 5.1-3.3 21.7-3.3 21.7s35.8 11.5 46.1 16.2c11.5 5.2 41.4 23.8 41.4 23.8z" fill="#d81e06" p-id="23332"></path></svg>