<?xml version="1.0" standalone="no"?><!DOCTYPE svg PUBLIC "-//W3C//DTD SVG 1.1//EN" "http://www.w3.org/Graphics/SVG/1.1/DTD/svg11.dtd"><svg t="1772430169211" class="icon" viewBox="0 0 1024 1024" version="1.1" xmlns="http://www.w3.org/2000/svg" p-id="8596" xmlns:xlink="http://www.w3.org/1999/xlink" width="200" height="200"><path d="M858.938 121.599H653.556C632.92 64.605 578.877 23.333 515 23.333c-63.875 0-117.92 41.272-138.556 98.266H171.065c-54.046 0-98.266 44.22-98.266 98.266v687.872c0 54.043 44.22 98.263 98.266 98.263h687.872c54.043 0 98.263-44.22 98.263-98.263V219.865c0-54.046-44.22-98.266-98.262-98.266z m-343.938 0c27.027 0 49.138 22.11 49.138 49.134 0 27.021-22.11 49.131-49.138 49.131-27.024 0-49.134-22.11-49.134-49.131 0-27.024 22.11-49.134 49.134-49.134z m98.263 687.864H269.334V711.2h343.929v98.263z m147.4-196.527H269.334v-98.274h491.329v98.274z m0-196.537H269.334v-98.266h491.329v98.266z" p-id="8597" fill="#13227a"></path></svg>