<?xml version="1.0" standalone="no"?><!DOCTYPE svg PUBLIC "-//W3C//DTD SVG 1.1//EN" "http://www.w3.org/Graphics/SVG/1.1/DTD/svg11.dtd"><svg t="1772430285877" class="icon" viewBox="0 0 1024 1024" version="1.1" xmlns="http://www.w3.org/2000/svg" p-id="11595" xmlns:xlink="http://www.w3.org/1999/xlink" width="200" height="200"><path d="M879 113c17.673 0 32 14.327 32 32v734c0 17.673-14.327 32-32 32H145c-17.673 0-32-14.327-32-32V145c0-17.673 14.327-32 32-32h734z m-40 72H185v654h654V185zM651 644v56H287v-56h364z m123.699-256v152h-124.14v61.278l-89-89 89-89V484h68.139v-96h56zM527 484v56H287v-56h240z m124-168v56H287v-56h364z" fill="#d81e06" p-id="11596"></path></svg>