<?xml version="1.0" standalone="no"?><!DOCTYPE svg PUBLIC "-//W3C//DTD SVG 1.1//EN" "http://www.w3.org/Graphics/SVG/1.1/DTD/svg11.dtd"><svg t="1772429959597" class="icon" viewBox="0 0 1024 1024" version="1.1" xmlns="http://www.w3.org/2000/svg" p-id="6511" xmlns:xlink="http://www.w3.org/1999/xlink" width="200" height="200"><path d="M96 228.064c0-70.72 93.12-124.128 208-124.128S512 157.376 512 228.064v181.44c0 70.688-93.12 123.136-208 123.136S96 480.192 96 409.504v-181.44z m416 384.96c0-70.656 93.12-124.096 208-124.096s208 53.44 208 124.128v177.856c0 70.72-93.12 123.136-208 123.136S512 861.6 512 790.912v-177.856z" fill="#FFFFFF" p-id="6512"></path><path d="M240 700.352v122.24C277.888 871.552 306.144 896 320 896v32c-28.416 0-62.912-30.176-108.736-90.304l-3.264-4.288v-133.056L151.104 752l-17.6-16L224 653.824 314.496 736l-17.6 16L240 700.352z m544-376.704v-122.24C746.112 152.448 717.856 128 704 128V96c28.416 0 62.912 30.176 108.736 90.304l3.264 4.288v133.056L872.896 272l17.6 16L800 370.176 709.504 288l17.6-16 56.896 51.648z" fill="#27A2DF" p-id="6513"></path><path d="M480 344.096V279.968C443.168 313.632 378.112 336 304 336S164.832 313.632 128 280v64.096c18.624 32.512 90.336 62.816 176 62.816s157.376-30.304 176-62.816z m-176 197.632c-114.88 0-208-53.696-208-119.936V216C96 149.728 189.12 96 304 96S512 149.728 512 216v205.76c0 66.24-93.12 119.968-208 119.968z m176-152.864c-37.248 30.144-103.68 49.984-176 49.984s-138.752-19.84-176-49.984v45.28c13.504 37.024 85.504 73.28 176 73.28s162.496-36.256 176-73.28v-45.28zM304 301.76c100.576 0 176-44.864 176-85.728s-75.424-85.728-176-85.728S128 175.136 128 216s75.424 85.728 176 85.728zM896 728.096v-64.128c-36.832 33.664-101.888 56.032-176 56.032s-139.168-22.368-176-56v64.096c18.624 32.512 90.336 62.816 176 62.816s157.376-30.304 176-62.816z m-176 197.632c-114.88 0-208-53.696-208-119.936V600c0-66.272 93.12-120 208-120s208 53.728 208 120v205.76c0 66.24-93.12 119.968-208 119.968z m176-152.864c-37.248 30.144-103.68 49.984-176 49.984s-138.752-19.84-176-49.984v45.28c13.504 37.024 85.504 73.28 176 73.28s162.496-36.256 176-73.28v-45.28z m-176-87.136c100.576 0 176-44.864 176-85.728s-75.424-85.728-176-85.728S544 559.136 544 600s75.424 85.728 176 85.728z" fill="#5D6D7E" p-id="6514"></path></svg>