<?xml version="1.0" standalone="no"?><!DOCTYPE svg PUBLIC "-//W3C//DTD SVG 1.1//EN" "http://www.w3.org/Graphics/SVG/1.1/DTD/svg11.dtd"><svg t="1772430578915" class="icon" viewBox="0 0 1024 1024" version="1.1" xmlns="http://www.w3.org/2000/svg" p-id="18392" xmlns:xlink="http://www.w3.org/1999/xlink" width="200" height="200"><path d="M73.138103 0a36.569052 36.569052 0 0 0-36.569051 36.569052v219.414309A36.569052 36.569052 0 0 0 73.138103 292.552413h219.41431a36.569052 36.569052 0 0 0 36.569051-36.569052v-54.853577h365.690516v50.465291L251.595075 694.81198H73.138103a36.569052 36.569052 0 0 0-36.569051 36.569052v219.414309a36.569052 36.569052 0 0 0 36.569051 36.569052h219.41431a36.569052 36.569052 0 0 0 36.569051-36.569052v-54.853577h438.828619v91.422629a36.569052 36.569052 0 0 0 62.45994 25.890888l146.276207-146.276206a36.569052 36.569052 0 0 0 0-51.781777l-146.276207-146.276206a36.569052 36.569052 0 0 0-62.45994 25.890888v91.422629h-438.828619v-13.89624L808.907421 292.552413H950.795341a36.569052 36.569052 0 0 0 36.569052-36.569052v-219.414309A36.569052 36.569052 0 0 0 950.795341 0h-219.414309a36.569052 36.569052 0 0 0-36.569052 36.569052v54.853577h-365.690516V36.569052A36.569052 36.569052 0 0 0 292.552413 0H73.138103z" fill="#000000" p-id="18393"></path></svg>