<?xml version="1.0" standalone="no"?><!DOCTYPE svg PUBLIC "-//W3C//DTD SVG 1.1//EN" "http://www.w3.org/Graphics/SVG/1.1/DTD/svg11.dtd"><svg t="1772430510391" class="icon" viewBox="0 0 1024 1024" version="1.1" xmlns="http://www.w3.org/2000/svg" p-id="13643" xmlns:xlink="http://www.w3.org/1999/xlink" width="200" height="200"><path d="M414.427429 445.878857h81.334857L344.795429 39.789714H241.810286l-152.137143 406.089143h78.994286l38.619428-107.666286h169.691429l37.449143 107.666286z m-184.32-172.032l59.099428-165.595428h7.021714l57.929143 165.595428H230.107429z m645.266285 673.645714h81.334857l-150.966857-406.089142H702.756571l-152.137142 406.089142h78.994285l38.619429-107.666285h169.691428l37.449143 107.666285z m-184.32-172.032l59.099429-165.595428h7.021714l57.929143 165.595428H691.053714z" p-id="13644" fill="#d4237a"></path><path d="M599.771429 118.272c119.222857 5.705143 218.185143 72.045714 244.955428 193.389714l-68.754286 3.657143 119.515429 159.012572L997.668571 303.542857l-76.507428 4.022857C892.342857 143.798857 761.782857 43.227429 603.428571 36.278857c-21.942857-0.658286-41.179429 19.090286-39.936 42.934857 2.56 20.406857 17.554286 38.253714 36.425143 39.058286zM439.588571 900.096c-133.339429-0.292571-242.249143-79.579429-259.657142-225.060571l73.142857-6.436572-124.854857-154.770286-96.182858 174.08 73.142858-6.363428c19.529143 187.977143 162.523429 298.496 333.824 300.617143 21.942857-0.219429 40.521143-20.626286 38.473142-44.397715a40.740571 40.740571 0 0 0-37.888-37.668571z" p-id="13645" fill="#d4237a"></path></svg>