<?xml version="1.0" standalone="no"?><!DOCTYPE svg PUBLIC "-//W3C//DTD SVG 1.1//EN" "http://www.w3.org/Graphics/SVG/1.1/DTD/svg11.dtd"><svg t="1772431978344" class="icon" viewBox="0 0 1024 1024" version="1.1" xmlns="http://www.w3.org/2000/svg" p-id="24906" xmlns:xlink="http://www.w3.org/1999/xlink" width="200" height="200"><path d="M539 374l-27-131.6-25 131.2c-27.2 4.9-53.4 17.9-74.4 38.9-54.9 54.9-54.9 143.9 0 198.8 54.9 54.9 143.9 54.9 198.8 0 54.9-54.9 54.9-143.9 0-198.8C590.8 392 565.5 379.2 539 374z" p-id="24907" fill="#ea986c"></path><path d="M512 0C229.2 0 0 229.2 0 512s229.2 512 512 512 512-229.2 512-512S794.8 0 512 0zM828.8 828.8 629.5 629.4c-21.4 21.3-47.2 35.7-74.4 43l73 272.5c-37.6 10.1-76.4 15.1-116 15.1s-78.4-5.1-116-15.1l73-272.5c-27.2-7.2-53-21.6-74.4-43L195.2 828.8c0 0 0 0 0 0-41.2-41.2-73.5-89.1-96-142.4-8.1-19.1-14.8-38.6-20.1-58.4L351.5 555c-7.5-28.2-7.5-57.9 0-86L79.1 396c5.3-19.8 12-39.3 20.1-58.4 22.6-53.3 54.9-101.3 96-142.4 0 0 0 0 0 0l199.3 199.3c21.4-21.3 47.2-35.7 74.4-43L396 79.1C433.6 69.1 472.4 64 512 64s78.4 5.1 116 15.1l-73 272.4c27.2 7.3 53 21.6 74.4 43l199.3-199.4c0 0 0 0 0 0 41.2 41.2 73.5 89.1 96 142.4 8.1 19.1 14.8 38.6 20.1 58.4l-272.5 73c7.5 28.1 7.5 57.8 0 86l272.5 73c-5.3 19.8-12 39.3-20.1 58.4C902.3 739.7 869.9 787.6 828.8 828.8 828.8 828.8 828.8 828.8 828.8 828.8z" p-id="24908" fill="#ea986c"></path></svg>