<?xml version="1.0" standalone="no"?><!DOCTYPE svg PUBLIC "-//W3C//DTD SVG 1.1//EN" "http://www.w3.org/Graphics/SVG/1.1/DTD/svg11.dtd"><svg t="1772431544365" class="icon" viewBox="0 0 1024 1024" version="1.1" xmlns="http://www.w3.org/2000/svg" p-id="21079" xmlns:xlink="http://www.w3.org/1999/xlink" width="200" height="200"><path d="M68.557 512.41a450.816 450.816 0 1 0 901.632 0 450.816 450.816 0 1 0-901.632 0z" fill="#E9ECFF" p-id="21080"></path><path d="M748.34 771.686H322.866c-40.653 0-73.728-33.075-73.728-73.728V273.357c0-13.466 10.906-24.371 24.371-24.371s24.372 10.905 24.372 24.37v424.551c0 13.773 11.212 24.986 24.985 24.986H748.34c13.466 0 24.371 10.905 24.371 24.371a24.371 24.371 0 0 1-24.37 24.422z" fill="#6C6CEA" p-id="21081"></path><path d="M433.766 693.3h-77.004a16.691 16.691 0 0 1-16.692-16.692V483.021c0-9.216 7.476-16.691 16.692-16.691h77.056c9.216 0 16.69 7.475 16.69 16.69v193.588a16.773 16.773 0 0 1-16.742 16.691z m154.42 0H511.13a16.691 16.691 0 0 1-16.692-16.692V276.122c0-9.216 7.476-16.692 16.692-16.692h77.056c9.216 0 16.69 7.476 16.69 16.692v400.486a16.727 16.727 0 0 1-16.69 16.691z" fill="#757BF2" p-id="21082"></path><path d="M742.554 693.3h-77.056a16.691 16.691 0 0 1-16.692-16.692V330.445c0-9.216 7.476-16.691 16.692-16.691h77.056c9.216 0 16.69 7.475 16.69 16.69v346.164c0 9.216-7.474 16.691-16.69 16.691z" fill="#6C6CEA" p-id="21083"></path><path d="M634.214 722.893H322.918c-13.772 0-24.985-11.213-24.985-24.986v-424.55c0-13.466-10.906-24.371-24.371-24.371s-24.372 10.905-24.372 24.37v424.551c0 40.653 33.076 73.728 73.728 73.728h205.62a445.798 445.798 0 0 0 105.676-48.742z m125.03-392.448c0-9.216-7.474-16.691-16.69-16.691h-77.056a16.691 16.691 0 0 0-16.692 16.69v346.164c0 9.216 7.476 16.691 16.692 16.691h10.342a454.129 454.129 0 0 0 83.405-87.347V330.445z" fill="#757BF2" p-id="21084"></path><path d="M271.053 631.86c9.011 0 17.971-0.308 26.88-0.82V273.357c0-13.466-10.906-24.371-24.371-24.371s-24.372 10.905-24.372 24.37v357.94c7.22 0.41 14.541 0.563 21.863 0.563z m162.713-165.53h-77.004a16.691 16.691 0 0 0-16.692 16.69v143.566a446.413 446.413 0 0 0 110.388-31.898V483.021c0-9.216-7.476-16.691-16.692-16.691z m171.06 17.766V276.122c0-9.216-7.476-16.692-16.692-16.692H511.13a16.691 16.691 0 0 0-16.692 16.692v296.55a450.995 450.995 0 0 0 110.388-88.576z m97.177-170.342h-36.505a16.691 16.691 0 0 0-16.692 16.69v96.666a446.095 446.095 0 0 0 53.197-113.356z" fill="#8486F8" p-id="21085"></path><path d="M297.933 450.048V273.357c0-13.466-10.906-24.371-24.371-24.371s-24.372 10.905-24.372 24.37v189.646a431.748 431.748 0 0 0 48.743-12.954z m214.374-150.22a452.463 452.463 0 0 0 28.314-40.346H511.13a16.691 16.691 0 0 0-16.692 16.69v45.006a419.386 419.386 0 0 0 17.87-21.35" fill="#8D92F8" p-id="21086"></path></svg>