<?xml version="1.0" standalone="no"?><!DOCTYPE svg PUBLIC "-//W3C//DTD SVG 1.1//EN" "http://www.w3.org/Graphics/SVG/1.1/DTD/svg11.dtd"><svg t="1772432300485" class="icon" viewBox="0 0 1562 1024" version="1.1" xmlns="http://www.w3.org/2000/svg" p-id="28422" xmlns:xlink="http://www.w3.org/1999/xlink" width="305.078125" height="200"><path d="M41.714526 700.631579H150.366316c105.256421 0 178.014316-56.751158 178.014316-182.37979S255.622737 339.752421 145.515789 339.752421H41.714526V700.631579z m86.824421-69.847579V408.629895h11.641264c58.206316 0 99.435789 23.767579 99.435789 109.621894 0 85.854316-41.229474 112.532211-99.435789 112.532211h-11.641264z m379.796211 76.638316c69.847579 0 134.844632-53.355789 134.844631-144.545684 0-91.674947-64.997053-145.030737-134.844631-145.030737-70.332632 0-135.329684 53.355789-135.329684 145.030737 0 91.189895 64.997053 144.545684 135.329684 144.545684z m0-69.847579c-32.498526 0-47.050105-29.103158-47.050105-74.698105 0-46.08 14.551579-75.183158 47.050105-75.183158 32.013474 0 46.565053 29.103158 46.565053 75.183158 0 45.594947-14.551579 74.698105-46.565053 74.698105z m267.749053 69.847579c18.917053 0 33.468632-3.395368 42.684631-7.27579l-10.186105-63.541894c-4.850526 0.970105-6.790737 0.970105-9.701053 0.970105-6.790737 0-15.521684-5.335579-15.521684-23.282526V313.074526h-85.854316v297.822316c0 57.721263 19.402105 96.525474 78.578527 96.525474z m202.266947 0c69.847579 0 134.844632-53.355789 134.844631-144.545684 0-91.674947-64.997053-145.030737-134.844631-145.030737-70.332632 0-135.329684 53.355789-135.329684 145.030737 0 91.189895 64.997053 144.545684 135.329684 144.545684z m0-69.847579c-32.498526 0-47.050105-29.103158-47.050105-74.698105 0-46.08 14.551579-75.183158 47.050105-75.183158 32.013474 0 46.565053 29.103158 46.565053 75.183158 0 45.594947-14.551579 74.698105-46.565053 74.698105z m189.170526 63.056842h85.854316v-157.642105c14.551579-36.378947 39.289263-49.475368 59.661474-49.475369 12.126316 0 20.372211 1.940211 30.073263 4.365474l14.551579-74.213053c-7.760842-3.395368-16.976842-5.820632-33.468632-5.820631-27.648 0-58.206316 17.946947-78.578526 54.810947h-1.940211l-5.820631-48.02021h-70.332632V700.631579z" fill="#5182E4" p-id="28423"></path><path d="M243.388632 269.473684h156.186947v-48.505263H301.271579v-51.09221h80.518737v-48.505264H301.271579v-44.624842h94.746947V28.887579H243.388632V269.473684z m260.958315 4.527158c18.755368 0 32.013474-3.880421 41.714527-6.790737l-9.054316-41.391158c-4.527158 1.293474-10.994526 3.233684-16.815158 3.233685-13.581474 0-23.282526-8.084211-23.282526-28.456421V130.425263h43.331368v-44.94821H496.909474v-48.505264h-47.858527l-6.467368 48.505264-28.133053 2.263579v42.684631h24.899369v70.817684c0 43.654737 18.755368 72.757895 64.997052 72.757895z m144.222316 0c46.565053 0 89.896421-35.570526 89.896421-96.363789 0-61.116632-43.331368-96.687158-89.896421-96.687158-46.888421 0-90.219789 35.570526-90.219789 96.687158 0 60.793263 43.331368 96.363789 90.219789 96.363789z m0-46.565053c-21.665684 0-31.366737-19.402105-31.366737-49.798736 0-30.72 9.701053-50.122105 31.366737-50.122106 21.342316 0 31.043368 19.402105 31.043369 50.122106 0 30.396632-9.701053 49.798737-31.043369 49.798736z m209.219369 46.565053c21.665684 0 46.888421-7.437474 65.967157-21.018947l-19.078736-34.600421a74.913684 74.913684 0 0 1-38.804211 11.641263c-23.282526 0-40.744421-10.347789-45.918316-35.570526h108.005053c1.832421-8.084211 2.694737-16.330105 2.586947-24.576 0-50.445474-25.869474-88.926316-78.901894-88.926316-44.624842 0-87.309474 36.864-87.309474 96.687158 0 60.793263 40.744421 96.363789 93.453474 96.363789z m-38.804211-117.059368c3.880421-21.989053 17.785263-32.013474 33.630316-32.013474 21.018947 0 29.103158 13.581474 29.103158 32.013474h-62.733474z" fill="#5182E4" fill-opacity=".3" p-id="28424"></path><path d="M914.324211 973.877895c54.703158 0 91.890526-39.343158 91.890526-105.094737 0-65.482105-37.187368-102.938947-91.890526-102.938947-54.703158 0-91.890526 37.187368-91.890527 102.938947s37.187368 105.094737 91.890527 105.094737z m0-41.498948c-26.408421 0-42.576842-24.522105-42.576843-63.595789 0-38.804211 16.168421-61.709474 42.576843-61.709474 26.408421 0 42.846316 22.905263 42.846315 61.709474 0 39.073684-16.437895 63.595789-42.846315 63.595789z m180.277894 41.498948c14.551579 0 29.372632-7.814737 40.151579-18.593684h1.077895l3.503158 14.821052h39.073684v-215.309474h-48.235789v51.2l1.886315 22.905264c-9.970526-9.701053-19.941053-15.898947-36.917894-15.898948-31.797895 0-63.326316 30.181053-63.326316 80.572632 0 49.852632 24.522105 80.303158 62.787368 80.303158z m12.665263-39.343158c-16.437895 0-26.138947-12.395789-26.138947-41.768421 0-28.294737 12.126316-40.690526 25.330526-40.690527a33.953684 33.953684 0 0 1 23.713685 9.162106v60.362105c-6.467368 9.970526-13.743158 12.934737-22.905264 12.934737z m109.67579 35.570526h47.696842v-153.330526h-47.696842V970.105263z m23.983158-174.618947c15.898947 0 27.216842-10.24 27.216842-24.522105 0-14.551579-11.317895-24.791579-27.216842-24.791579-16.168421 0-27.486316 10.24-27.486316 24.791579 0 14.282105 11.317895 24.522105 27.486316 24.522105z m129.077895 178.391579c38.804211 0 74.913684-29.642105 74.913684-80.303158 0-50.930526-36.109474-80.572632-74.913684-80.572632-39.073684 0-75.183158 29.642105-75.183158 80.572632 0 50.661053 36.109474 80.303158 75.183158 80.303158z m0-38.804211c-18.054737 0-26.138947-16.168421-26.138948-41.498947 0-25.6 8.084211-41.768421 26.138948-41.768421 17.785263 0 25.869474 16.168421 25.869473 41.768421 0 25.330526-8.084211 41.498947-25.869473 41.498947z" fill="#5182E4" fill-opacity=".504" p-id="28425"></path><path d="M238.753684 970.105263h45.810527v-66.56c0-24.252632-4.042105-51.738947-6.197895-74.105263h1.347368l19.671579 43.924211 49.583158 96.741052h49.044211v-200.488421h-45.810527v66.290526c0 23.983158 3.772632 52.816842 6.467369 74.105264H357.322105l-19.671579-44.463158-49.852631-95.932632h-49.044211V970.105263z m268.665263 3.772632c38.804211 0 74.913684-29.642105 74.913685-80.303158 0-50.930526-36.109474-80.572632-74.913685-80.572632-39.073684 0-75.183158 29.642105-75.183158 80.572632 0 50.661053 36.109474 80.303158 75.183158 80.303158z m0-38.804211c-18.054737 0-26.138947-16.168421-26.138947-41.498947 0-25.6 8.084211-41.768421 26.138947-41.768421 17.785263 0 25.869474 16.168421 25.869474 41.768421 0 25.330526-8.084211 41.498947-25.869474 41.498947z m105.094737 35.031579h47.696842v-102.4c9.431579-8.892632 15.898947-13.743158 26.677895-13.743158 12.126316 0 17.785263 6.197895 17.785263 27.216842V970.105263h47.966316v-94.854737c0-38.265263-14.282105-62.248421-47.696842-62.248421-20.749474 0-36.378947 10.509474-49.044211 22.905263h-1.077894l-3.233685-19.132631h-39.073684V970.105263zM1047.174737 269.473684h45.810526V202.913684c0-24.252632-4.042105-51.738947-6.197895-74.105263h1.347369l19.671579 43.924211 49.583158 96.741052h49.04421V68.985263h-45.810526v66.290526c0 23.983158 3.772632 52.816842 6.467368 74.105264h-1.347368l-19.671579-44.463158-49.852632-95.932632h-49.04421V269.473684z m202.105263 0h47.696842V116.143158h-47.696842V269.473684z m23.983158-174.618947c15.898947 0 27.216842-10.24 27.216842-24.522105 0-14.551579-11.317895-24.791579-27.216842-24.791579-16.168421 0-27.486316 10.24-27.486316 24.791579 0 14.282105 11.317895 24.522105 27.486316 24.522105z m108.328421 178.391579c41.768421 0 63.865263-21.827368 63.865263-50.122105 0-27.755789-21.288421-38.804211-40.421053-46.08-15.898947-5.658947-29.911579-9.162105-29.911578-18.324211 0-7.275789 5.389474-11.048421 16.168421-11.048421 10.24 0 21.018947 5.389474 31.797894 12.934737l21.557895-28.564211c-13.473684-9.970526-30.72-19.671579-54.972632-19.671579-35.570526 0-59.284211 19.671579-59.28421 48.774737 0 25.330526 21.557895 37.726316 39.882105 45.002105 15.629474 6.197895 30.450526 10.509474 30.450527 19.671579 0 7.545263-5.389474 12.126316-18.054737 12.126316-12.126316 0-24.791579-5.389474-38.804211-16.168421l-21.288421 29.911579c15.36 12.934737 39.073684 21.557895 59.014737 21.557895z" fill="#5182E4" p-id="28426"></path><path d="M1482.428632 636.928l-13.581474-3.449263c-15.952842-4.096-34.708211-8.407579-51.523369-12.288v-0.862316c16.384-4.311579 35.570526-8.407579 51.523369-12.719158l13.581474-3.449263v32.768z m66.613894-49.367579v-40.528842l-160.390737 49.798737v46.133895l160.390737 49.798736v-39.235368l-36.864-9.269895v-47.427368l36.864-9.269895z m0-54.325895v-38.157473h-70.063158c-16.168421-6.467368-21.989053-17.461895-21.989052-26.516211 0-5.389474 0.862316-9.054316 1.94021-13.365895l-32.983579-6.467368a34.654316 34.654316 0 0 0-2.586947 14.874947c0 12.288 7.976421 25.869474 24.360421 34.92379v0.862316l-21.342316 2.586947v31.258947h122.664421z m3.018106-151.552c0-12.934737-3.880421-28.456421-14.44379-40.313263l-25.222737 14.659369c4.958316 6.251789 8.623158 13.581474 8.623158 21.342315 0 15.090526-12.934737 26.085053-33.199158 26.085053-20.48 0-33.414737-10.563368-33.414737-27.378526 0-5.389474 1.940211-10.132211 6.682948-15.737263l-24.576-17.893053a53.086316 53.086316 0 0 0-13.150316 35.786105c0 34.277053 23.713684 64.458105 64.458105 64.458105 40.528842 0 64.242526-26.516211 64.242527-61.008842z" fill="#5182E4" fill-opacity=".504" p-id="28427"></path></svg>